<svg width="24" height="24" viewBox="0 0 24 24" fill="none" xmlns="http://www.w3.org/2000/svg">
<path fill-rule="evenodd" clip-rule="evenodd" d="M3.13874 3.13874C3.32372 2.95375 3.62364 2.95375 3.80863 3.13874L20.8613 20.1914C21.0462 20.3764 21.0462 20.6763 20.8613 20.8613C20.6763 21.0462 20.3764 21.0462 20.1914 20.8613L3.13874 3.80863C2.95375 3.62364 2.95375 3.32372 3.13874 3.13874Z" fill="black"/>
<path fill-rule="evenodd" clip-rule="evenodd" d="M20.8613 3.13874C21.0462 3.32372 21.0462 3.62364 20.8613 3.80863L3.80863 20.8613C3.62364 21.0462 3.32372 21.0462 3.13874 20.8613C2.95375 20.6763 2.95375 20.3764 3.13874 20.1914L20.1914 3.13874C20.3764 2.95375 20.6763 2.95375 20.8613 3.13874Z" fill="black"/>
</svg>
