<svg width="24" height="24" viewBox="0 0 24 24" fill="none" xmlns="http://www.w3.org/2000/svg">
<path d="M0 12C0 5.37258 5.37258 0 12 0C18.6274 0 24 5.37258 24 12C24 18.6274 18.6274 24 12 24C5.37258 24 0 18.6274 0 12Z" fill="black"/>
<mask id="mask0" mask-type="alpha" maskUnits="userSpaceOnUse" x="0" y="0" width="24" height="24">
<path fill-rule="evenodd" clip-rule="evenodd" d="M0 12C0 5.37258 5.37258 0 12 0C18.6274 0 24 5.37258 24 12C24 18.6274 18.6274 24 12 24C5.37258 24 0 18.6274 0 12Z" fill="white"/>
</mask>
<g mask="url(#mask0)">
<path fill-rule="evenodd" clip-rule="evenodd" d="M12.0005 5.6001C10.2623 5.6001 10.0442 5.6077 9.36149 5.63876C8.68015 5.66997 8.21508 5.77783 7.80814 5.9361C7.38721 6.09957 7.03014 6.31824 6.6744 6.67411C6.31839 7.02985 6.09973 7.38692 5.93572 7.80772C5.77706 8.21479 5.66905 8.68 5.63839 9.36107C5.60785 10.0437 5.59985 10.262 5.59985 12.0002C5.59985 13.7383 5.60759 13.9558 5.63852 14.6385C5.66985 15.3198 5.77772 15.7849 5.93586 16.1918C6.09946 16.6127 6.31813 16.9698 6.674 17.3256C7.0296 17.6816 7.38667 17.9008 7.80734 18.0642C8.21455 18.2225 8.67975 18.3304 9.36096 18.3616C10.0436 18.3926 10.2616 18.4002 11.9997 18.4002C13.7379 18.4002 13.9554 18.3926 14.6381 18.3616C15.3194 18.3304 15.785 18.2225 16.1922 18.0642C16.613 17.9008 16.9696 17.6816 17.3252 17.3256C17.6812 16.9698 17.8998 16.6127 18.0638 16.1919C18.2212 15.7849 18.3292 15.3197 18.3612 14.6386C18.3919 13.9559 18.3999 13.7383 18.3999 12.0002C18.3999 10.262 18.3919 10.0439 18.3612 9.3612C18.3292 8.67986 18.2212 8.21479 18.0638 7.80785C17.8998 7.38692 17.6812 7.02985 17.3252 6.67411C16.9692 6.31811 16.6132 6.09944 16.1918 5.9361C15.7838 5.77783 15.3185 5.66997 14.6371 5.63876C13.9545 5.6077 13.7371 5.6001 11.9985 5.6001H12.0005ZM11.7871 6.75338H11.7873L12.0006 6.75345C13.7094 6.75345 13.9119 6.75958 14.5867 6.79025C15.2107 6.81878 15.5494 6.92305 15.775 7.01065C16.0737 7.12665 16.2866 7.26532 16.5105 7.48932C16.7345 7.71332 16.8732 7.92666 16.9894 8.22533C17.077 8.45066 17.1814 8.78933 17.2098 9.41334C17.2405 10.088 17.2472 10.2907 17.2472 11.9987C17.2472 13.7067 17.2405 13.9094 17.2098 14.5841C17.1813 15.2081 17.077 15.5467 16.9894 15.7721C16.8734 16.0707 16.7345 16.2834 16.5105 16.5073C16.2865 16.7313 16.0738 16.87 15.775 16.986C15.5497 17.074 15.2107 17.178 14.5867 17.2065C13.9121 17.2372 13.7094 17.2438 12.0006 17.2438C10.2916 17.2438 10.0891 17.2372 9.41441 17.2065C8.7904 17.1777 8.45173 17.0734 8.22599 16.9858C7.92732 16.8698 7.71399 16.7311 7.48999 16.5071C7.26598 16.2831 7.12732 16.0703 7.01105 15.7715C6.92345 15.5462 6.81905 15.2075 6.79065 14.5835C6.75998 13.9089 6.75385 13.7062 6.75385 11.9971C6.75385 10.288 6.75998 10.0864 6.79065 9.41174C6.81918 8.78773 6.92345 8.44906 7.01105 8.22346C7.12705 7.92479 7.26598 7.71146 7.48999 7.48745C7.71399 7.26345 7.92732 7.12478 8.22599 7.00852C8.4516 6.92051 8.7904 6.81651 9.41441 6.78785C10.0048 6.76118 10.2336 6.75318 11.4264 6.75185V6.75345C11.5379 6.75327 11.6577 6.75333 11.7871 6.75338ZM14.6488 8.58386C14.6488 8.15973 14.9928 7.81612 15.4168 7.81612V7.81586C15.8408 7.81586 16.1848 8.15986 16.1848 8.58386C16.1848 9.00787 15.8408 9.35187 15.4168 9.35187C14.9928 9.35187 14.6488 9.00787 14.6488 8.58386ZM12.0004 8.71347C10.1853 8.71354 8.71381 10.1851 8.71381 12.0002C8.71381 13.8153 10.1854 15.2862 12.0005 15.2862C13.8156 15.2862 15.2867 13.8153 15.2867 12.0002C15.2867 10.1851 13.8155 8.71347 12.0004 8.71347ZM14.1339 12.0002C14.1339 10.8219 13.1787 9.86681 12.0005 9.86681C10.8223 9.86681 9.86719 10.8219 9.86719 12.0002C9.86719 13.1783 10.8223 14.1335 12.0005 14.1335C13.1787 14.1335 14.1339 13.1783 14.1339 12.0002Z" fill="white"/>
</g>
</svg>
