<svg width="32" height="32" viewBox="0 0 32 32" fill="none" xmlns="http://www.w3.org/2000/svg">
<path d="M0 16C0 7.16344 7.16344 0 16 0C24.8366 0 32 7.16344 32 16C32 24.8366 24.8366 32 16 32C7.16344 32 0 24.8366 0 16Z" fill="#405DE6"/>
<mask id="mask0" mask-type="alpha" maskUnits="userSpaceOnUse" x="0" y="0" width="32" height="32">
<path fill-rule="evenodd" clip-rule="evenodd" d="M0 16C0 7.16344 7.16344 0 16 0C24.8366 0 32 7.16344 32 16C32 24.8366 24.8366 32 16 32C7.16344 32 0 24.8366 0 16Z" fill="white"/>
</mask>
<g mask="url(#mask0)">
<path fill-rule="evenodd" clip-rule="evenodd" d="M16.0008 7.46666C13.6833 7.46666 13.3924 7.47679 12.4822 7.51822C11.5737 7.55982 10.9536 7.70364 10.4111 7.91466C9.84981 8.13262 9.37372 8.42418 8.8994 8.89867C8.42473 9.37299 8.13317 9.84908 7.9145 10.4102C7.70294 10.9529 7.55894 11.5732 7.51805 12.4813C7.47734 13.3915 7.46667 13.6825 7.46667 16.0001C7.46667 18.3176 7.47699 18.6076 7.51823 19.5178C7.56001 20.4263 7.70383 21.0464 7.91468 21.5889C8.13282 22.1502 8.42437 22.6263 8.89887 23.1006C9.37301 23.5753 9.8491 23.8675 10.41 24.0855C10.9529 24.2965 11.5732 24.4403 12.4815 24.4819C13.3917 24.5234 13.6824 24.5335 15.9997 24.5335C18.3175 24.5335 18.6074 24.5234 19.5176 24.4819C20.4261 24.4403 21.0469 24.2965 21.5898 24.0855C22.1509 23.8675 22.6263 23.5753 23.1004 23.1006C23.5751 22.6263 23.8667 22.1502 24.0853 21.5891C24.2951 21.0464 24.4391 20.4261 24.4818 19.518C24.5227 18.6078 24.5333 18.3176 24.5333 16.0001C24.5333 13.6825 24.5227 13.3917 24.4818 12.4815C24.4391 11.573 24.2951 10.9529 24.0853 10.4103C23.8667 9.84908 23.5751 9.37299 23.1004 8.89867C22.6258 8.424 22.1511 8.13244 21.5893 7.91466C21.0453 7.70364 20.4249 7.55982 19.5164 7.51822C18.6062 7.47679 18.3164 7.46666 15.9981 7.46666H16.0008ZM15.7163 9.00437H15.7164L16.0008 9.00445C18.2792 9.00445 18.5493 9.01263 19.449 9.05352C20.281 9.09156 20.7326 9.23059 21.0334 9.34739C21.4316 9.50205 21.7155 9.68695 22.014 9.98562C22.3127 10.2843 22.4976 10.5687 22.6526 10.967C22.7694 11.2674 22.9086 11.719 22.9465 12.551C22.9874 13.4505 22.9963 13.7208 22.9963 15.9981C22.9963 18.2755 22.9874 18.5457 22.9465 19.4453C22.9084 20.2773 22.7694 20.7288 22.6526 21.0293C22.498 21.4275 22.3127 21.7111 22.014 22.0096C21.7154 22.3082 21.4318 22.4931 21.0334 22.6478C20.733 22.7651 20.281 22.9038 19.449 22.9418C18.5495 22.9827 18.2792 22.9916 16.0008 22.9916C13.7222 22.9916 13.4522 22.9827 12.5526 22.9418C11.7206 22.9034 11.269 22.7644 10.9681 22.6476C10.5698 22.4929 10.2854 22.3081 9.98671 22.0094C9.68804 21.7107 9.50315 21.427 9.34813 21.0286C9.23133 20.7281 9.09212 20.2766 9.05426 19.4446C9.01337 18.545 9.00519 18.2748 9.00519 15.996C9.00519 13.7172 9.01337 13.4484 9.05426 12.5488C9.0923 11.7168 9.23133 11.2653 9.34813 10.9645C9.50279 10.5662 9.68804 10.2818 9.98671 9.98313C10.2854 9.68446 10.5698 9.49957 10.9681 9.34454C11.2689 9.22721 11.7206 9.08854 12.5526 9.05032C13.3398 9.01476 13.6449 9.00409 15.2353 9.00232V9.00445C15.3839 9.00422 15.5438 9.00429 15.7163 9.00437ZM19.5319 11.445C19.5319 10.8795 19.9905 10.4214 20.5559 10.4214V10.421C21.1212 10.421 21.5799 10.8797 21.5799 11.445C21.5799 12.0103 21.1212 12.469 20.5559 12.469C19.9905 12.469 19.5319 12.0103 19.5319 11.445ZM16.0006 11.6178C13.5806 11.6179 11.6185 13.58 11.6185 16.0001C11.6185 18.4202 13.5807 20.3815 16.0008 20.3815C18.4209 20.3815 20.3824 18.4202 20.3824 16.0001C20.3824 13.58 18.4207 11.6178 16.0006 11.6178ZM18.8453 16.0001C18.8453 14.429 17.5717 13.1556 16.0008 13.1556C14.4298 13.1556 13.1563 14.429 13.1563 16.0001C13.1563 17.5709 14.4298 18.8446 16.0008 18.8446C17.5717 18.8446 18.8453 17.5709 18.8453 16.0001Z" fill="white"/>
</g>
</svg>
