<svg width="32" height="32" viewBox="0 0 32 32" fill="none" xmlns="http://www.w3.org/2000/svg">
<path d="M0 16C0 7.16344 7.16344 0 16 0C24.8366 0 32 7.16344 32 16C32 24.8366 24.8366 32 16 32C7.16344 32 0 24.8366 0 16Z" fill="#828282"/>
<path d="M8.07878 21.3002C8.00467 21.5143 7.98242 21.743 8.01384 21.9675C8.04526 22.1919 8.12947 22.4057 8.25954 22.5913C8.4331 22.8188 8.66155 22.9985 8.92349 23.1137C9.18543 23.2288 9.4723 23.2757 9.75726 23.2498H22.2814C22.5633 23.2697 22.8457 23.2188 23.1028 23.1015C23.3599 22.9842 23.5835 22.8044 23.7533 22.5784C23.8784 22.3905 23.9586 22.1763 23.9877 21.9524C24.0168 21.7285 23.994 21.5009 23.9211 21.2872C23.512 20.1743 22.8744 19.1594 22.0494 18.3077C21.2244 17.4561 20.2303 16.7865 19.131 16.3422C19.863 15.7078 20.3836 14.8649 20.6232 13.9263C20.8627 12.9878 20.8096 11.9984 20.4711 11.0909C20.1326 10.1833 19.5248 9.4009 18.7291 8.84848C17.9334 8.29605 16.988 8 16.0193 8C15.0507 8 14.1052 8.29605 13.3095 8.84848C12.5139 9.4009 11.906 10.1833 11.5675 11.0909C11.229 11.9984 11.1759 12.9878 11.4155 13.9263C11.655 14.8649 12.1756 15.7078 12.9077 16.3422C11.8003 16.7841 10.7982 17.4539 9.96634 18.308C9.13446 19.1621 8.49138 20.1815 8.07878 21.3002ZM14.5991 17.1814C14.7703 17.1968 14.9406 17.1436 15.0726 17.0334C15.2045 16.9232 15.2873 16.7652 15.3027 16.5939C15.3181 16.4227 15.2649 16.2524 15.1547 16.1204C15.0446 15.9885 14.8865 15.9057 14.7153 15.8903C13.9697 15.5904 13.3517 15.0404 12.9674 14.3346C12.5831 13.6288 12.4565 12.8113 12.6092 12.0224C12.7619 11.2334 13.1845 10.5222 13.8043 10.0108C14.4242 9.49934 15.2028 9.21964 16.0064 9.21964C16.81 9.21964 17.5886 9.49934 18.2085 10.0108C18.8283 10.5222 19.2509 11.2334 19.4036 12.0224C19.5563 12.8113 19.4297 13.6288 19.0454 14.3346C18.6611 15.0404 18.0431 15.5904 17.2975 15.8903C17.1263 15.9057 16.9682 15.9885 16.8581 16.1204C16.7479 16.2524 16.6947 16.4227 16.7101 16.5939C16.7255 16.7652 16.8083 16.9232 16.9402 17.0334C17.0722 17.1436 17.2425 17.1968 17.4137 17.1814C18.6065 17.4195 19.7191 17.9567 20.6474 18.7426C21.5756 19.5286 22.2889 20.5374 22.7204 21.6746C22.7371 21.7249 22.7371 21.7792 22.7204 21.8295C22.7204 21.907 22.5138 21.9457 22.3072 21.9457H9.75726C9.47321 21.9457 9.3441 21.8683 9.29245 21.7391C9.7149 20.59 10.4242 19.5679 11.3531 18.7702C12.2819 17.9724 13.3993 17.4255 14.5991 17.1814Z" fill="white"/>
</svg>
