<svg width="24" height="24" viewBox="0 0 24 24" fill="none" xmlns="http://www.w3.org/2000/svg">
<path fill-rule="evenodd" clip-rule="evenodd" d="M12 10C13.6569 10 15 8.65685 15 7C15 5.34315 13.6569 4 12 4C10.3431 4 9 5.34315 9 7C9 8.65685 10.3431 10 12 10ZM12 11C14.2091 11 16 9.20914 16 7C16 4.79086 14.2091 3 12 3C9.79086 3 8 4.79086 8 7C8 9.20914 9.79086 11 12 11Z" fill="black"/>
<path fill-rule="evenodd" clip-rule="evenodd" d="M13.8889 14H10.1111C6.77315 14 4.06025 16.6762 4.00099 20H19.999C19.9397 16.6762 17.2268 14 13.8889 14ZM10.1111 13C6.18375 13 3 16.1838 3 20.1111C3 20.602 3.39797 21 3.88889 21H20.1111C20.602 21 21 20.602 21 20.1111C21 16.1838 17.8162 13 13.8889 13H10.1111Z" fill="black"/>
</svg>
